<svg xmlns="http://www.w3.org/2000/svg" width="2084" height="2084" viewBox="0 0 2084 2084" version="1.1">
	<path d="M 0 1042.500 L 0 2084 1041.500 2084 L 2083 2084 2083 1042.500 L 2083 1 1041.500 1 L 0 1 0 1042.500 M 1426 455 C 1426 455.596, 1422.167 456, 1416.500 456 C 1408.722 456, 1407 456.272, 1407 457.500 C 1407 458.548, 1405.944 459, 1403.500 459 C 1401.575 459, 1400 459.450, 1400 460 C 1400 460.550, 1398.650 461, 1397 461 C 1395.350 461, 1394 461.450, 1394 462 C 1394 462.550, 1392.425 463, 1390.500 463 C 1388.575 463, 1387 463.450, 1387 464 C 1387 464.550, 1385.875 465, 1384.500 465 C 1382.944 465, 1382 465.567, 1382 466.500 C 1382 467.433, 1381.056 468, 1379.500 468 C 1378.125 468, 1377 468.450, 1377 469 C 1377 469.550, 1376.293 470, 1375.429 470 C 1373.633 470, 1371 472.335, 1371 473.929 C 1371 474.518, 1369.974 475, 1368.721 475 C 1367.467 475, 1365.793 475.900, 1365 477 C 1364.207 478.100, 1362.983 479, 1362.279 479 C 1361.576 479, 1361 479.482, 1361 480.071 C 1361 481.665, 1358.367 484, 1356.571 484 C 1355.707 484, 1355 484.450, 1355 485 C 1355 485.550, 1354.518 486, 1353.929 486 C 1352.544 486, 1350 488.544, 1350 489.929 C 1350 490.518, 1349.550 491, 1349 491 C 1348.450 491, 1348 491.900, 1348 493 C 1348 494.111, 1347.333 495, 1346.500 495 C 1345.675 495, 1345 495.470, 1345 496.045 C 1345 497.403, 1340.403 502, 1339.045 502 C 1338.470 502, 1338 503.026, 1338 504.279 C 1338 505.533, 1337.100 507.207, 1336 508 C 1334.900 508.793, 1334 510.467, 1334 511.721 C 1334 512.974, 1333.550 514, 1333 514 C 1332.450 514, 1332 514.900, 1332 516 C 1332 517.111, 1331.333 518, 1330.500 518 C 1329.567 518, 1329 518.944, 1329 520.500 C 1329 521.875, 1328.550 523, 1328 523 C 1327.450 523, 1327 524.575, 1327 526.500 C 1327 528.425, 1326.550 530, 1326 530 C 1325.450 530, 1325 531.575, 1325 533.500 C 1325 535.944, 1324.548 537, 1323.500 537 C 1322.452 537, 1322 538.056, 1322 540.500 C 1322 542.425, 1321.550 544, 1321 544 C 1320.407 544, 1320 547.667, 1320 553 C 1320 558.333, 1319.593 562, 1319 562 C 1318.336 562, 1318 663.667, 1318 865 C 1318 1066.333, 1318.336 1168, 1319 1168 C 1319.550 1168, 1320 1170.250, 1320 1173 C 1320 1175.750, 1320.450 1178, 1321 1178 C 1321.550 1178, 1322 1178.900, 1322 1180 C 1322 1181.111, 1322.667 1182, 1323.500 1182 C 1324.433 1182, 1325 1182.944, 1325 1184.500 C 1325 1185.875, 1325.450 1187, 1326 1187 C 1326.550 1187, 1327 1187.900, 1327 1189 C 1327 1190.100, 1327.450 1191, 1328 1191 C 1328.550 1191, 1329 1192.125, 1329 1193.500 C 1329 1195.056, 1329.567 1196, 1330.500 1196 C 1331.433 1196, 1332 1196.944, 1332 1198.500 C 1332 1199.875, 1332.450 1201, 1333 1201 C 1333.550 1201, 1334 1201.900, 1334 1203 C 1334 1204.100, 1334.450 1205, 1335 1205 C 1335.550 1205, 1336 1206.125, 1336 1207.500 C 1336 1208.875, 1336.450 1210, 1337 1210 C 1337.550 1210, 1338 1210.900, 1338 1212 C 1338 1213.111, 1338.667 1214, 1339.500 1214 C 1340.433 1214, 1341 1214.944, 1341 1216.500 C 1341 1217.875, 1341.450 1219, 1342 1219 C 1342.550 1219, 1343 1220.125, 1343 1221.500 C 1343 1222.875, 1343.450 1224, 1344 1224 C 1344.550 1224, 1345 1224.900, 1345 1226 C 1345 1227.111, 1345.667 1228, 1346.500 1228 C 1347.433 1228, 1348 1228.944, 1348 1230.500 C 1348 1231.875, 1348.450 1233, 1349 1233 C 1349.550 1233, 1350 1233.900, 1350 1235 C 1350 1236.100, 1350.450 1237, 1351 1237 C 1351.550 1237, 1352 1238.125, 1352 1239.500 C 1352 1241.056, 1352.567 1242, 1353.500 1242 C 1354.433 1242, 1355 1242.944, 1355 1244.500 C 1355 1245.875, 1355.450 1247, 1356 1247 C 1356.550 1247, 1357 1247.900, 1357 1249 C 1357 1250.100, 1357.450 1251, 1358 1251 C 1358.550 1251, 1359 1252.125, 1359 1253.500 C 1359 1254.875, 1359.450 1256, 1360 1256 C 1360.550 1256, 1361 1256.900, 1361 1258 C 1361 1259.111, 1361.667 1260, 1362.500 1260 C 1363.433 1260, 1364 1260.944, 1364 1262.500 C 1364 1263.875, 1364.450 1265, 1365 1265 C 1365.550 1265, 1366 1266.125, 1366 1267.500 C 1366 1268.875, 1366.450 1270, 1367 1270 C 1367.550 1270, 1368 1270.900, 1368 1272 C 1368 1273.111, 1368.667 1274, 1369.500 1274 C 1370.433 1274, 1371 1274.944, 1371 1276.500 C 1371 1277.875, 1371.450 1279, 1372 1279 C 1372.550 1279, 1373 1279.900, 1373 1281 C 1373 1282.100, 1373.450 1283, 1374 1283 C 1374.550 1283, 1375 1284.125, 1375 1285.500 C 1375 1286.875, 1375.450 1288, 1376 1288 C 1376.550 1288, 1377 1288.900, 1377 1290 C 1377 1291.111, 1377.667 1292, 1378.500 1292 C 1379.433 1292, 1380 1292.944, 1380 1294.500 C 1380 1295.875, 1380.450 1297, 1381 1297 C 1381.550 1297, 1382 1298.125, 1382 1299.500 C 1382 1300.875, 1382.450 1302, 1383 1302 C 1383.550 1302, 1384 1302.900, 1384 1304 C 1384 1305.111, 1384.667 1306, 1385.500 1306 C 1386.433 1306, 1387 1306.944, 1387 1308.500 C 1387 1309.875, 1387.450 1311, 1388 1311 C 1388.550 1311, 1389 1311.900, 1389 1313 C 1389 1314.100, 1389.450 1315, 1390 1315 C 1390.550 1315, 1391 1316.125, 1391 1317.500 C 1391 1319.056, 1391.567 1320, 1392.500 1320 C 1393.433 1320, 1394 1320.944, 1394 1322.500 C 1394 1323.875, 1394.450 1325, 1395 1325 C 1395.550 1325, 1396 1325.900, 1396 1327 C 1396 1328.100, 1396.450 1329, 1397 1329 C 1397.550 1329, 1398 1330.125, 1398 1331.500 C 1398 1332.875, 1398.450 1334, 1399 1334 C 1399.550 1334, 1400 1334.900, 1400 1336 C 1400 1337.111, 1400.667 1338, 1401.500 1338 C 1402.433 1338, 1403 1338.944, 1403 1340.500 C 1403 1341.875, 1403.450 1343, 1404 1343 C 1404.550 1343, 1405 1344.125, 1405 1345.500 C 1405 1346.875, 1405.450 1348, 1406 1348 C 1406.550 1348, 1407 1348.900, 1407 1350 C 1407 1351.111, 1407.667 1352, 1408.500 1352 C 1409.433 1352, 1410 1352.944, 1410 1354.500 C 1410 1355.875, 1410.450 1357, 1411 1357 C 1411.550 1357, 1412 1357.900, 1412 1359 C 1412 1360.100, 1412.450 1361, 1413 1361 C 1413.550 1361, 1414 1361.675, 1414 1362.500 C 1414 1363.325, 1414.470 1364, 1415.045 1364 C 1416.403 1364, 1421 1368.597, 1421 1369.955 C 1421 1370.530, 1422.575 1371, 1424.500 1371 C 1426.425 1371, 1428 1371.450, 1428 1372 C 1428 1372.550, 1430.025 1373, 1432.500 1373 C 1434.975 1373, 1437 1372.550, 1437 1372 C 1437 1371.450, 1438.575 1371, 1440.500 1371 C 1442.425 1371, 1444 1370.518, 1444 1369.929 C 1444 1368.763, 1446.462 1366, 1447.500 1366 C 1448.538 1366, 1451 1363.237, 1451 1362.071 C 1451 1361.482, 1451.450 1361, 1452 1361 C 1452.550 1361, 1453 1360.100, 1453 1359 C 1453 1357.889, 1453.667 1357, 1454.500 1357 C 1455.433 1357, 1456 1356.056, 1456 1354.500 C 1456 1353.125, 1456.450 1352, 1457 1352 C 1457.550 1352, 1458 1351.100, 1458 1350 C 1458 1348.900, 1458.450 1348, 1459 1348 C 1459.550 1348, 1460 1346.875, 1460 1345.500 C 1460 1344.125, 1460.450 1343, 1461 1343 C 1461.550 1343, 1462 1341.875, 1462 1340.500 C 1462 1338.944, 1462.567 1338, 1463.500 1338 C 1464.333 1338, 1465 1337.111, 1465 1336 C 1465 1334.900, 1465.450 1334, 1466 1334 C 1466.550 1334, 1467 1332.875, 1467 1331.500 C 1467 1330.125, 1467.450 1329, 1468 1329 C 1468.550 1329, 1469 1328.100, 1469 1327 C 1469 1325.889, 1469.667 1325, 1470.500 1325 C 1471.433 1325, 1472 1324.056, 1472 1322.500 C 1472 1321.125, 1472.450 1320, 1473 1320 C 1473.550 1320, 1474 1318.875, 1474 1317.500 C 1474 1316.125, 1474.450 1315, 1475 1315 C 1475.550 1315, 1476 1314.100, 1476 1313 C 1476 1311.889, 1476.667 1311, 1477.500 1311 C 1478.433 1311, 1479 1310.056, 1479 1308.500 C 1479 1307.125, 1479.450 1306, 1480 1306 C 1480.550 1306, 1481 1305.100, 1481 1304 C 1481 1302.900, 1481.450 1302, 1482 1302 C 1482.550 1302, 1483 1300.875, 1483 1299.500 C 1483 1298.125, 1483.450 1297, 1484 1297 C 1484.550 1297, 1485 1295.875, 1485 1294.500 C 1485 1292.944, 1485.567 1292, 1486.500 1292 C 1487.333 1292, 1488 1291.111, 1488 1290 C 1488 1288.900, 1488.450 1288, 1489 1288 C 1489.550 1288, 1490 1286.875, 1490 1285.500 C 1490 1284.125, 1490.450 1283, 1491 1283 C 1491.550 1283, 1492 1282.100, 1492 1281 C 1492 1279.889, 1492.667 1279, 1493.500 1279 C 1494.433 1279, 1495 1278.056, 1495 1276.500 C 1495 1275.125, 1495.450 1274, 1496 1274 C 1496.550 1274, 1497 1273.100, 1497 1272 C 1497 1270.900, 1497.450 1270, 1498 1270 C 1498.550 1270, 1499 1268.875, 1499 1267.500 C 1499 1265.944, 1499.567 1265, 1500.500 1265 C 1501.433 1265, 1502 1264.056, 1502 1262.500 C 1502 1261.125, 1502.450 1260, 1503 1260 C 1503.550 1260, 1504 1259.100, 1504 1258 C 1504 1256.900, 1504.450 1256, 1505 1256 C 1505.550 1256, 1506 1254.875, 1506 1253.500 C 1506 1252.125, 1506.450 1251, 1507 1251 C 1507.550 1251, 1508 1250.100, 1508 1249 C 1508 1247.889, 1508.667 1247, 1509.500 1247 C 1510.433 1247, 1511 1246.056, 1511 1244.500 C 1511 1243.125, 1511.450 1242, 1512 1242 C 1512.550 1242, 1513 1240.875, 1513 1239.500 C 1513 1238.125, 1513.450 1237, 1514 1237 C 1514.550 1237, 1515 1236.100, 1515 1235 C 1515 1233.889, 1515.667 1233, 1516.500 1233 C 1517.433 1233, 1518 1232.056, 1518 1230.500 C 1518 1229.125, 1518.450 1228, 1519 1228 C 1519.550 1228, 1520 1227.100, 1520 1226 C 1520 1224.900, 1520.450 1224, 1521 1224 C 1521.550 1224, 1522 1222.875, 1522 1221.500 C 1522 1219.944, 1522.567 1219, 1523.500 1219 C 1524.433 1219, 1525 1218.056, 1525 1216.500 C 1525 1215.125, 1525.450 1214, 1526 1214 C 1526.550 1214, 1527 1213.100, 1527 1212 C 1527 1210.900, 1527.450 1210, 1528 1210 C 1528.550 1210, 1529 1208.875, 1529 1207.500 C 1529 1206.125, 1529.450 1205, 1530 1205 C 1530.550 1205, 1531 1204.100, 1531 1203 C 1531 1201.889, 1531.667 1201, 1532.500 1201 C 1533.433 1201, 1534 1200.056, 1534 1198.500 C 1534 1197.125, 1534.450 1196, 1535 1196 C 1535.550 1196, 1536 1194.875, 1536 1193.500 C 1536 1192.125, 1536.450 1191, 1537 1191 C 1537.550 1191, 1538 1190.100, 1538 1189 C 1538 1187.889, 1538.667 1187, 1539.500 1187 C 1540.433 1187, 1541 1186.056, 1541 1184.500 C 1541 1183.125, 1541.450 1182, 1542 1182 C 1542.550 1182, 1543 1181.100, 1543 1180 C 1543 1178.900, 1543.450 1178, 1544 1178 C 1544.550 1178, 1545 1175.750, 1545 1173 C 1545 1170.250, 1545.450 1168, 1546 1168 C 1546.664 1168, 1547 1066.333, 1547 865 C 1547 663.667, 1546.664 562, 1546 562 C 1545.407 562, 1545 558.333, 1545 553 C 1545 547.667, 1544.593 544, 1544 544 C 1543.450 544, 1543 542.425, 1543 540.500 C 1543 538.575, 1542.550 537, 1542 537 C 1541.450 537, 1541 535.425, 1541 533.500 C 1541 531.056, 1540.548 530, 1539.500 530 C 1538.452 530, 1538 528.944, 1538 526.500 C 1538 524.575, 1537.550 523, 1537 523 C 1536.450 523, 1536 521.875, 1536 520.500 C 1536 519.125, 1535.550 518, 1535 518 C 1534.450 518, 1534 517.100, 1534 516 C 1534 514.889, 1533.333 514, 1532.500 514 C 1531.605 514, 1531 513.080, 1531 511.721 C 1531 510.467, 1530.100 508.793, 1529 508 C 1527.900 507.207, 1527 505.726, 1527 504.708 C 1527 502.925, 1524.826 500, 1523.500 500 C 1522.243 500, 1520 497.117, 1520 495.500 C 1520 493.645, 1517.691 491, 1516.071 491 C 1515.482 491, 1515 490.530, 1515 489.955 C 1515 488.317, 1510.269 484, 1508.474 484 C 1506.878 484, 1504 481.749, 1504 480.500 C 1504 479.462, 1501.237 477, 1500.071 477 C 1499.482 477, 1499 476.550, 1499 476 C 1499 475.450, 1498.100 475, 1497 475 C 1495.889 475, 1495 474.333, 1495 473.500 C 1495 472.675, 1494.325 472, 1493.500 472 C 1492.675 472, 1492 471.550, 1492 471 C 1492 470.450, 1491.100 470, 1490 470 C 1488.900 470, 1488 469.550, 1488 469 C 1488 468.450, 1486.875 468, 1485.500 468 C 1483.944 468, 1483 467.433, 1483 466.500 C 1483 465.667, 1482.111 465, 1481 465 C 1479.900 465, 1479 464.550, 1479 464 C 1479 463.450, 1477.425 463, 1475.500 463 C 1473.575 463, 1472 462.550, 1472 462 C 1472 461.450, 1470.425 461, 1468.500 461 C 1466.575 461, 1465 460.550, 1465 460 C 1465 459.450, 1463.425 459, 1461.500 459 C 1459.056 459, 1458 458.548, 1458 457.500 C 1458 456.278, 1456.333 456, 1449 456 C 1443.667 456, 1440 455.593, 1440 455 C 1440 454.429, 1437 454, 1433 454 C 1429 454, 1426 454.429, 1426 455 M 622 515 C 622 515.571, 619 516, 615 516 C 611 516, 608 516.429, 608 517 C 608 517.550, 605.975 518, 603.500 518 C 600.167 518, 599 518.389, 599 519.500 C 599 520.548, 597.944 521, 595.500 521 C 593.575 521, 592 521.450, 592 522 C 592 522.550, 590.875 523, 589.500 523 C 588.125 523, 587 523.450, 587 524 C 587 524.550, 586.100 525, 585 525 C 583.889 525, 583 525.667, 583 526.500 C 583 527.325, 582.325 528, 581.500 528 C 580.675 528, 580 528.450, 580 529 C 580 529.550, 579.100 530, 578 530 C 576.900 530, 576 530.450, 576 531 C 576 531.550, 575.518 532, 574.929 532 C 573.763 532, 571 534.462, 571 535.500 C 571 536.757, 568.117 539, 566.500 539 C 564.388 539, 562 541.388, 562 543.500 C 562 545.117, 559.757 548, 558.500 548 C 557.462 548, 555 550.763, 555 551.929 C 555 552.518, 554.550 553, 554 553 C 553.450 553, 553 553.900, 553 555 C 553 556.111, 552.333 557, 551.500 557 C 550.675 557, 550 557.675, 550 558.500 C 550 559.325, 549.550 560, 549 560 C 548.450 560, 548 560.900, 548 562 C 548 563.100, 547.550 564, 547 564 C 546.450 564, 546 565.125, 546 566.500 C 546 567.875, 545.550 569, 545 569 C 544.450 569, 544 570.575, 544 572.500 C 544 574.944, 543.548 576, 542.500 576 C 541.389 576, 541 577.167, 541 580.500 C 541 582.975, 540.550 585, 540 585 C 539.429 585, 539 588, 539 592 C 539 596, 538.571 599, 538 599 C 537.335 599, 537 739.833, 537 1019.500 C 537 1299.167, 537.335 1440, 538 1440 C 538.564 1440, 539 1442.833, 539 1446.500 C 539 1450.167, 539.436 1453, 540 1453 C 540.550 1453, 541 1455.025, 541 1457.500 C 541 1460.833, 541.389 1462, 542.500 1462 C 543.548 1462, 544 1463.056, 544 1465.500 C 544 1467.425, 544.450 1469, 545 1469 C 545.550 1469, 546 1470.125, 546 1471.500 C 546 1472.875, 546.450 1474, 547 1474 C 547.550 1474, 548 1474.932, 548 1476.071 C 548 1478.285, 550.164 1481, 551.929 1481 C 552.518 1481, 553 1481.900, 553 1483 C 553 1484.100, 553.450 1485, 554 1485 C 554.550 1485, 555 1485.482, 555 1486.071 C 555 1487.237, 557.462 1490, 558.500 1490 C 559.757 1490, 562 1492.883, 562 1494.500 C 562 1496.769, 564.443 1499, 566.929 1499 C 568.068 1499, 569 1499.470, 569 1500.045 C 569 1501.403, 573.597 1506, 574.955 1506 C 575.530 1506, 576 1506.450, 576 1507 C 576 1507.550, 576.900 1508, 578 1508 C 579.111 1508, 580 1508.667, 580 1509.500 C 580 1510.395, 580.920 1511, 582.279 1511 C 583.533 1511, 585.207 1511.900, 586 1513 C 586.793 1514.100, 588.467 1515, 589.721 1515 C 591.080 1515, 592 1515.605, 592 1516.500 C 592 1517.548, 593.056 1518, 595.500 1518 C 597.425 1518, 599 1518.450, 599 1519 C 599 1519.550, 601.025 1520, 603.500 1520 C 605.975 1520, 608 1520.450, 608 1521 C 608 1521.571, 611 1522, 615 1522 C 620.556 1522, 622 1522.310, 622 1523.500 C 622 1524.796, 625.611 1525, 648.500 1525 L 675 1525 675 1568.500 C 675 1596.833, 675.349 1612, 676 1612 C 676.550 1612, 677 1613.370, 677 1615.045 C 677 1618.045, 680.710 1623, 682.955 1623 C 683.530 1623, 684 1623.482, 684 1624.071 C 684 1626.102, 686.865 1628, 689.929 1628 C 691.618 1628, 693 1628.450, 693 1629 C 693 1629.550, 695.025 1630, 697.500 1630 C 699.975 1630, 702 1629.550, 702 1629 C 702 1628.450, 703.382 1628, 705.071 1628 C 708.135 1628, 711 1626.102, 711 1624.071 C 711 1623.482, 711.470 1623, 712.045 1623 C 713.161 1623, 718 1618.509, 718 1617.474 C 718 1616.673, 720.673 1614, 721.474 1614 C 722.509 1614, 727 1609.161, 727 1608.045 C 727 1607.470, 727.470 1607, 728.045 1607 C 729.403 1607, 734 1602.403, 734 1601.045 C 734 1600.470, 734.470 1600, 735.045 1600 C 736.161 1600, 741 1595.509, 741 1594.474 C 741 1593.673, 743.673 1591, 744.474 1591 C 745.509 1591, 750 1586.161, 750 1585.045 C 750 1584.470, 750.470 1584, 751.045 1584 C 752.403 1584, 757 1579.403, 757 1578.045 C 757 1577.470, 757.470 1577, 758.045 1577 C 759.403 1577, 764 1572.403, 764 1571.045 C 764 1570.470, 765.125 1570, 766.500 1570 C 767.875 1570, 769 1570.470, 769 1571.045 C 769 1572.403, 773.597 1577, 774.955 1577 C 775.530 1577, 776 1577.470, 776 1578.045 C 776 1579.403, 780.597 1584, 781.955 1584 C 782.530 1584, 783 1584.465, 783 1585.033 C 783 1586.378, 789.622 1593, 790.967 1593 C 791.535 1593, 792 1593.470, 792 1594.045 C 792 1595.403, 796.597 1600, 797.955 1600 C 798.530 1600, 799 1600.494, 799 1601.099 C 799 1601.703, 800.350 1603.459, 802 1605 C 803.650 1606.541, 805 1608.297, 805 1608.901 C 805 1609.506, 805.494 1610, 806.099 1610 C 806.703 1610, 808.459 1611.350, 810 1613 C 811.541 1614.650, 813.297 1616, 813.901 1616 C 814.506 1616, 815 1616.470, 815 1617.045 C 815 1618.403, 819.597 1623, 820.955 1623 C 821.530 1623, 822 1623.482, 822 1624.071 C 822 1626.298, 825.001 1628, 828.929 1628 C 831.168 1628, 833 1628.450, 833 1629 C 833 1629.550, 834.125 1630, 835.500 1630 C 836.875 1630, 838 1629.550, 838 1629 C 838 1628.450, 839.832 1628, 842.071 1628 C 845.681 1628, 849 1626.323, 849 1624.500 C 849 1623.666, 851.666 1621, 852.500 1621 C 854.140 1621, 856 1617.850, 856 1615.071 C 856 1613.382, 856.450 1612, 857 1612 C 857.651 1612, 858 1596.833, 858 1568.500 L 858 1525 1054.500 1525 C 1228.500 1525, 1251 1524.828, 1251 1523.500 C 1251 1522.389, 1252.167 1522, 1255.500 1522 C 1257.975 1522, 1260 1521.550, 1260 1521 C 1260 1520.450, 1260.482 1520, 1261.071 1520 C 1262.237 1520, 1265 1517.538, 1265 1516.500 C 1265 1515.462, 1267.763 1513, 1268.929 1513 C 1269.532 1513, 1270 1511.033, 1270 1508.500 C 1270 1506.025, 1270.450 1504, 1271 1504 C 1271.550 1504, 1272 1502.875, 1272 1501.500 C 1272 1500.125, 1271.550 1499, 1271 1499 C 1270.450 1499, 1270 1496.975, 1270 1494.500 C 1270 1491.967, 1269.532 1490, 1268.929 1490 C 1267.763 1490, 1265 1487.538, 1265 1486.500 C 1265 1485.462, 1262.237 1483, 1261.071 1483 C 1260.482 1483, 1260 1482.550, 1260 1482 C 1260 1481.450, 1257.975 1481, 1255.500 1481 C 1253.025 1481, 1251 1480.550, 1251 1480 C 1251 1479.429, 1248 1479, 1244 1479 C 1238.444 1479, 1237 1478.690, 1237 1477.500 C 1237 1476.675, 1236.550 1476, 1236 1476 C 1235.450 1476, 1235 1475.100, 1235 1474 C 1235 1472.900, 1234.550 1472, 1234 1472 C 1233.450 1472, 1233 1470.875, 1233 1469.500 C 1233 1467.944, 1232.433 1467, 1231.500 1467 C 1230.452 1467, 1230 1465.944, 1230 1463.500 C 1230 1461.575, 1229.550 1460, 1229 1460 C 1228.450 1460, 1228 1457.975, 1228 1455.500 C 1228 1453.025, 1227.550 1451, 1227 1451 C 1226.369 1451, 1226 1444.167, 1226 1432.500 C 1226 1420.833, 1226.369 1414, 1227 1414 C 1227.550 1414, 1228 1411.975, 1228 1409.500 C 1228 1407.025, 1228.450 1405, 1229 1405 C 1229.550 1405, 1230 1403.425, 1230 1401.500 C 1230 1399.056, 1230.452 1398, 1231.500 1398 C 1232.333 1398, 1233 1397.111, 1233 1396 C 1233 1394.900, 1233.450 1394, 1234 1394 C 1234.550 1394, 1235 1393.068, 1235 1391.929 C 1235 1388.246, 1237.384 1387, 1244.429 1387 C 1249.603 1387, 1251 1386.681, 1251 1385.500 C 1251 1384.389, 1252.167 1384, 1255.500 1384 C 1257.975 1384, 1260 1383.550, 1260 1383 C 1260 1382.450, 1260.482 1382, 1261.071 1382 C 1262.237 1382, 1265 1379.538, 1265 1378.500 C 1265 1377.462, 1267.763 1375, 1268.929 1375 C 1269.532 1375, 1270 1373.033, 1270 1370.500 C 1270 1368.025, 1270.450 1366, 1271 1366 C 1271.665 1366, 1272 1226.667, 1272 950 C 1272 673.333, 1271.665 534, 1271 534 C 1270.450 534, 1270 531.975, 1270 529.500 C 1270 527.025, 1269.530 525, 1268.955 525 C 1267.597 525, 1263 520.403, 1263 519.045 C 1263 518.470, 1262.325 518, 1261.500 518 C 1260.675 518, 1260 517.550, 1260 517 C 1260 516.450, 1257.975 516, 1255.500 516 C 1253.025 516, 1251 515.550, 1251 515 C 1251 514.335, 1145.500 514, 936.500 514 C 727.500 514, 622 514.335, 622 515" stroke="none" fill="black" fill-rule="evenodd"/>
</svg>